<?xml version="1.0" standalone="no"?><!DOCTYPE svg PUBLIC "-//W3C//DTD SVG 1.1//EN" "http://www.w3.org/Graphics/SVG/1.1/DTD/svg11.dtd"><svg t="1720454615948" class="icon" viewBox="0 0 1040 1024" version="1.1" xmlns="http://www.w3.org/2000/svg" p-id="4024" xmlns:xlink="http://www.w3.org/1999/xlink" width="146.25" height="144"><path d="M957.5469 789.180607c-56.555276-1.410022-100.38785 4.246319-137.149999 19.797191-10.605638 4.238192-27.574659 4.242255-28.988744 17.676064 5.65634 5.65634 6.363383 14.847893 11.312681 22.621298 8.492637 14.136787 23.32834 33.226936 36.762148 43.129595 14.84383 11.308617 29.695787 22.617234 45.242596 32.51583 27.574659 16.969021 58.684531 26.863553 85.548084 43.832574 15.558999 9.890469 31.101745 22.625361 46.656681 33.226936 7.777468 5.648213 12.722702 14.847893 22.625361 18.379042v-2.117064c-4.953361-6.367446-6.367446-15.554936-11.312681-22.625361-7.062298-7.070425-14.140851-13.433808-21.211276-20.504234-20.50017-27.566532-45.949638-51.605979-73.520234-71.399106-22.621298-15.554936-72.114276-36.762149-81.301765-62.922723 0 0-0.711106-0.702979-1.414085-1.410021 15.550872-1.414085 33.929915-7.070425 48.781872-11.312681 24.035383-6.367446 45.949638-4.949298 70.696127-11.312681 11.308617-2.82817 22.621298-6.363383 33.929915-9.898595v-6.35932c-12.718639-12.726766-21.910192-29.691723-35.344-41.711446-36.055106-31.113935-75.649488-61.508638-116.649829-86.958106-21.918319-14.140851-50.20002-23.332404-73.528361-35.348063-8.476384-4.246319-22.621298-6.363383-27.566532-13.433809-12.730829-15.550872-19.801255-36.051043-28.988744-54.434148-20.496107-38.88734-40.297361-82.008808-57.973425-123.009148-12.718639-27.574659-20.496107-55.149318-36.051043-80.594723-72.817255-120.185042-151.997892-193.002296-273.592955-264.40953-26.160574-14.84383-57.266382-21.207213-90.493318-28.980617-17.667937-0.711106-35.348064-2.121128-53.020064-2.832233-11.312681-4.949298-22.625361-18.379043-32.523957-24.742426C138.182119 18.589571 34.250929-36.547557 4.559205 36.269698c-19.090149 45.949638 28.281702 91.192234 44.535553 114.528701 12.02785 16.257915 27.574659 34.636958 36.05917 53.020063 4.949298 12.011596 6.359319 24.746489 11.308617 37.469192 11.316744 31.097681 21.914255 65.746829 36.766212 94.735573 7.777468 14.84383 16.257915 30.394702 26.156511 43.828511 5.65634 7.773404 15.550872 11.312681 17.676063 24.035383-9.894532 14.140851-10.605638 35.352127-16.266041 53.024127-25.449468 79.88768-15.546809 178.861445 20.504233 237.537849 11.308617 17.667937 38.176234 56.563403 74.23134 41.711447 31.816914-12.722702 24.746489-53.020064 33.929915-88.368128 2.129255-8.492637 0.715169-14.140851 4.953361-19.797191v1.418149c9.898596 19.789064 19.793128 38.883276 28.984681 58.676404 21.918319 34.636958 60.090489 70.696127 91.90334 94.735573 16.973084 12.718639 30.402829 34.636958 51.614105 42.414426v-2.125191h-1.418148c-4.242255-6.363383-10.605638-9.18749-16.257915-14.140851-12.722702-12.718639-26.867617-28.273575-36.762149-42.414426-29.68766-39.594382-55.852297-83.422893-79.180637-128.669552-11.308617-21.910192-21.211276-45.949638-30.398766-67.863893-4.246319-8.492637-4.246319-21.211276-11.312681-25.449468-10.605638 15.550872-26.156511 28.984681-33.933978 48.070766-13.425681 30.398766-14.84383 67.867957-19.793128 106.747169-2.82817 0.715169-1.418149 0-2.832234 1.422213-22.617234-5.664467-30.394702-28.988744-38.883276-48.785936-21.211276-50.191893-24.746489-130.786616-6.359319-188.755977 4.949298-14.847893 26.160574-61.504574 17.676063-75.645425-4.242255-13.433808-18.38717-21.211276-26.160574-31.812851-9.18749-13.433808-19.090149-30.394702-25.449468-45.246659-16.969021-39.590319-25.453531-83.422893-43.832574-123.013212-8.48451-18.383106-23.324277-37.465128-35.348063-54.434149-13.429745-19.086085-28.277638-32.523957-38.883277-55.145254-3.531149-7.773404-8.48451-20.50017-2.82817-28.984681 1.414085-5.65634 4.238192-7.773404 9.898596-9.18749 9.191553-7.781531 35.352127 2.117064 44.535553 6.35932 26.160574 10.597511 48.074829 20.504234 69.993148 35.348063 9.894532 7.070425 20.50017 20.504234 33.222872 24.039447h14.847894c22.625361 4.945234 48.070766 1.414085 69.282042 7.773404 37.473255 12.01566 71.40317 29.691723 101.805999 48.781872 92.614446 58.676404 168.958786 142.099297 220.572892 241.780105 8.48451 16.253852 12.01566 31.109872 19.793127 48.070765 14.851957 34.645084 33.230999 69.993148 48.070766 103.927127 14.847893 33.222872 28.984681 67.160914 50.195957 94.735574 10.605638 14.839766 53.020064 22.621298 72.110212 30.398765 14.140851 6.359319 36.05917 12.019723 48.781872 19.793128 24.035383 14.839766 48.070766 31.816914 70.696127 48.070766 11.312681 8.48451 46.656681 26.160574 48.781872 40.297361z" fill="#00546B" p-id="4025"></path><path d="M236.436651 174.825655c-12.01566 0-20.496107 1.422212-28.980617 3.539276v1.414085h1.414085c5.660404 11.312681 15.550872 19.090149 22.617234 28.984681 5.660404 11.308617 10.605638 22.625361 16.266042 33.938042 0.702979-0.711106 1.410022-1.414085 1.410022-1.414085 9.902659-7.074489 14.847893-18.383106 14.847893-35.352127-4.242255-4.945234-4.949298-9.894532-8.48451-14.84383-4.238192-7.074489-13.433808-10.605638-19.090149-16.266042z" fill="#00546B" p-id="4026"></path></svg>