<?xml version="1.0" standalone="no"?><!DOCTYPE svg PUBLIC "-//W3C//DTD SVG 1.1//EN" "http://www.w3.org/Graphics/SVG/1.1/DTD/svg11.dtd"><svg t="1720454660803" class="icon" viewBox="0 0 1024 1024" version="1.1" xmlns="http://www.w3.org/2000/svg" p-id="5024" xmlns:xlink="http://www.w3.org/1999/xlink" width="144" height="144"><path d="M692.48 739.44177778H331.88067555c-65.26407111 0-117.60412445-16.25543111-145.05870222-81.23960889H129.70666667c32.19114667 81.23960889 108.01152 129.96721778 202.17514666 129.96721778h360.15786667c94.32405333 0 170.14556445-48.72760889 202.21496889-129.96721778h-56.71480889c-27.45457778 64.98417778-79.75367111 81.23960889-145.05870222 81.23960889zM331.92049778 284.55822222h360.55950222c65.26407111 0 117.60412445 16.25543111 145.05870222 81.23960889h56.71480889C862.18524445 284.55822222 786.36373333 235.83061333 692.03854222 235.83061333H331.88067555c-94.16248889 0-169.984 48.72760889-202.17514666 129.96721778h57.15740444c27.45457778-65.024 79.79349333-81.23960889 145.05756445-81.23960889z m-45.63626667 229.22808889c0-53.58478222-44.59292445-97.17418667-99.42129778-97.17418666h-85.17404444c-54.82723555 0-99.42129778 43.58940445-99.42129778 97.17418666s44.59406222 97.17418667 99.42243556 97.17418667h85.21272888c54.82837333 0 99.38147555-43.63036445 99.38147556-97.17418667z m-236.65322666 0c0-28.0576 23.35971555-50.89507555 52.05902222-50.89507556h85.21272888c28.69816889 0 52.05902222 22.83861333 52.05902223 50.89507556s-23.36085333 50.89507555-52.05902223 50.89507556h-85.21272888c-28.73912889 0-52.05902222-22.83861333-52.05902222-50.89507556z m474.14954666-25.56814222c0-39.49568-32.87267555-71.64586667-73.29223111-71.64586667H308.40035555V611.52142222h47.32245334v-94.80647111l90.39075556 94.80647111h64.70200888l-49.81191111-52.21944889c35.48273778-5.0176 62.77688889-34.96049778 62.77688889-71.08494222z m-73.29223111 25.56814222h-94.76551111v-50.89507556h94.76551111c14.32917333 0 25.92995555 11.48017778 25.92995555 25.52718223 0.03982222 13.96849778-11.60078222 25.36789333-25.92995555 25.36789333z m193.70666667-50.93489778h98.41777778l47.32245333-46.27911111H644.19384889c-54.82837333 0-99.42129778 43.58940445-99.42129778 97.17418667s44.59292445 97.17304889 99.42129778 97.17304889h97.21514666l47.32245334-46.27911111H644.15288889c-28.73912889 0-52.05902222-22.83747555-52.05902222-50.89393778 0.04096-28.0576 23.40067555-50.89507555 52.09884444-50.89507556z m214.45632 92.79829334V416.61212445h-56.79559112v194.58844444h163.04128L1021.69031111 555.69066667H858.65130667z" fill="#1296db" p-id="5025"></path></svg>