<?xml version="1.0" standalone="no"?><!DOCTYPE svg PUBLIC "-//W3C//DTD SVG 1.1//EN" "http://www.w3.org/Graphics/SVG/1.1/DTD/svg11.dtd"><svg t="1720454752819" class="icon" viewBox="0 0 1024 1024" version="1.1" xmlns="http://www.w3.org/2000/svg" p-id="9395" xmlns:xlink="http://www.w3.org/1999/xlink" width="144" height="144"><path d="M387.66272 0l1.664 7.424c14.272 59.552 50.496 121.984 69.216 151.616l2.496 3.872c4.544 0.224 9.088 0.576 13.6 0.96 17.984 1.472 35.776 3.744 53.504 6.4 17.76 2.656 35.392 5.952 52.96 9.6 35.136 7.392 69.952 16.864 104 28.864 8.512 3.008 16.96 6.144 25.376 9.472a742.176 742.176 0 0 1 49.664 22.08c8.128 4.096 16.192 8.32 24.128 12.736 15.968 8.864 31.456 18.56 46.368 29.056 14.944 10.56 29.376 21.952 43.008 34.272a357.12 357.12 0 0 1 70.016 85.408l12.032 20.736-23.456 2.624a1992 1992 0 0 0-366.016 76.896l0.32 1.728c4.896 27.84 16.736 118.816-5.44 260.448 0 0-24.32 140-96.576 258.624-0.512 0.608-1.696 0.832-1.696 0.832h-0.096l0.096 0.064s-0.928 0.224-2.528 0.32l-1.824 0.096-1.856-0.256c-90.24 2.368-251.456-34.88-251.456-34.88C57.39072 949.216 15.79072 875.84 15.79072 875.84c-52.672-77.664 42.304-151.968 59.232-164.288l3.968-3.264-0.096-0.32a1.92 1.92 0 0 1 0.832-1.696l10.304-6.88 0.832-0.64c17.92-14.752 35.36-30.016 52.128-45.952a803.84 803.84 0 0 0 63.52-67.008c9.888-11.776 19.36-23.872 28.288-36.32 8.896-12.448 17.312-25.28 24.704-38.496a214.72 214.72 0 0 0 5.248-9.952l0.576-1.248 0.64-1.408 1.184-2.656 2.208-5.248a366.784 366.784 0 0 0 8.096-21.28 325.056 325.056 0 0 0 12-43.424c1.504-7.264 2.688-14.624 3.584-22.016a253.44 253.44 0 0 0 1.6-44.128 242.432 242.432 0 0 0-30.08-104.256 281.568 281.568 0 0 0-61.792-76.352l-2.048-1.696-1.824-1.472-0.64-0.48-0.128-0.128-0.288-0.224-0.544-0.48-1.088-1.024-2.24-2.08-4.32-4.16a330.976 330.976 0 0 1-4.192-4.384c-2.816-2.944-5.408-6.08-8-9.28a99.328 99.328 0 0 1-13.184-21.44 52.64 52.64 0 0 1-2.752-8.064l-1.6-0.768a14.144 14.144 0 0 1 1.12-10.56l0.192-0.448a11.04 11.04 0 0 1 1.504-3.2 6.208 6.208 0 0 1 1.504-1.6 0.64 0.64 0 0 1 0.128-0.128C197.80672 63.104 387.66272 0 387.66272 0z m104.384 920.608l-1.472 0.576c-33.376 12.864-147.2 55.328-218.752 64.032l0.512 0.128c86.176 17.6 171.52 30.272 171.52 30.272 4.928 0.96 8.736 1.856 11.68 2.624l0.064 0.032 0.544-1.28c5.664-13.216 19.808-47.584 35.904-96.384z m-163.2-49.408l-3.2 5.216c-36.16 57.632-65.28 89.824-78.496 103.072 4.576 1.184 9.184 2.304 13.792 3.392 19.776-5.824 59.04-17.376 100.224-29.664l25.28-7.552c44.832-13.44 87.68-26.496 106.016-32.768l1.92-0.64 0.416-0.128a1223.552 1223.552 0 0 0 1.408-4.288l-1.312 4.032 1.728-5.344a424.416 424.416 0 0 1-167.776-35.328z m-22.4-3.84l-5.088 1.76a2031.456 2031.456 0 0 1-184.32 53.76l-2.624 0.64c8.736 5.76 14.496 8.896 14.496 8.896 20.48 12.928 60.448 30.752 106.048 43.744l1.024-1.216 0.864-1.024c22.016-27.296 48.256-69.76 69.44-106.304l0.16-0.256z m-101.216-82.368l-1.504 1.856-2.56 2.88c-5.92 6.72-12.128 13.28-18.624 19.712 0 0-57.952 72.32-81.728 104.608l7.264 5.152 0.32-0.128 1.312-0.416c24.96-8.32 108.032-36 178.88-61.024l0.448-0.16 6.976-2.496c-53.6-29.568-81.344-60.864-81.344-60.864a154.336 154.336 0 0 1-7.392-7.008l-2.048-2.112z m-16.96-10.912l-3.04 0.768c-47.68 12.64-104.192 26.56-155.712 36.512 1.664 40.192 36.064 75.168 63.936 97.024A2590.88 2590.88 0 0 0 188.20672 774.08z m346.048-9.824l-0.416 0.256c-26.048 15.872-81.792 47.36-160.128 77.76 0 0-10.88 4.544-30.528 11.84l-3.776 1.472 1.856 0.896c63.456 30.4 130.24 43.936 155.84 48.32l2.016-6.4a1467.552 1467.552 0 0 0 35.136-134.144z m-148.064-52.416l-5.44 2.368-0.448 0.192c-27.104 11.712-55.68 22.08-84.416 29.344l-2.016 0.608c-7.04 2.112-31.968 9.504-66.4 19.04l-4.416 1.248a207.424 207.424 0 0 0 36.8 38.24 299.872 299.872 0 0 0 59.232 42.176l1.12-1.92c9.664-17.216 17.28-31.36 21.536-39.264l2.272-4.288 1.344-2.56a582.976 582.976 0 0 0 40.832-85.184z m23.712-8.384l-1.376 4.48c-7.52 23.36-13.664 38.72-13.664 38.72a1219.84 1219.84 0 0 1-44.992 88.736c16.8-6.304 30.464-11.744 39.168-15.744 0 0 74.4-24.224 140.48-61.312l6.752-3.84 0.16-0.736 0.288-1.376c-53.92-10.688-95.264-28.608-126.816-48.928zM165.42272 662.72l15.36-7.936c-16.8 8.544-33.472 17.312-50.016 26.4l-16.48 9.184-5.152 2.944a200.96 200.96 0 0 0-3.168 2.368c-34.656 26.624-57.696 61.952-57.696 61.952-12.032 15.552-17.664 30.88-18.688 45.6 23.136-6.496 87.104-24.64 154.368-44.768l1.088-0.32c-20.736-35.68-21.664-73.056-19.616-95.424z m385.12-46.08l-0.544 0.352c-16 11.648-61.184 43.296-119.104 73.344l-1.696 0.896c41.504 24.8 85.664 42.976 109.44 51.968l0.16-1.056 0.576-3.072c0.704-3.52 1.344-7.072 2.016-10.656 0 0 8.352-49.28 9.152-111.776z m-269.92-9.696l2.208-0.96c-28.864 12.896-57.504 26.4-85.76 40.576h-0.064l-0.608 2.048c-10.176 35.68-1.504 67.84 12.32 93.504l5.568-8.864c27.008-43.712 51.808-88.576 66.24-126.016l0.096-0.288z m34.464-14.976l-2.656 1.12a1792 1792 0 0 0-2.112 0.896l-1.44 4.608-2.112 6.24a592.608 592.608 0 0 1-68.48 137.12l6.592-2.048c48.384-15.04 92.416-29.632 117.216-39.936 0 0 8.864-3.424 22.912-9.248l4.384-1.856c-48.576-37.856-67.968-79.68-74.304-96.896z m12.736-94.752l-15.296 9.696c-22.624 14.624-44.992 29.696-67.2 45.12a59.2 59.2 0 0 1-2.528 3.424c-9.536 12.384-19.584 24.288-30.048 35.808a818.528 818.528 0 0 1-106.432 97.28c19.2-12.864 38.4-25.856 57.76-38.496l3.552-2.976c0.608-3.072 1.056-4.8 1.056-4.8l6.688-1.504 1.984-1.6 7.264-5.984c9.696-7.968 19.328-16 28.896-24.128a1257.984 1257.984 0 0 0 55.68-50.144 924.096 924.096 0 0 0 58.624-61.696z m112.576 46.368l-5.696 2.176c4.64 39.392-5.536 90.24-16.736 130.88l0.32-0.16 0.64-0.288c42.88-19.04 99.296-46.592 129.12-71.648-28.544-14.048-81.632-45.44-102.976-58.176l-4.672-2.784z m-25.568 9.344l-12.64 4.608a2141.76 2141.76 0 0 0-70.496 27.52c5.184 32.512 33.216 62.048 67.808 86.816l0.48-1.664 1.216-4.384c14.752-54.56 14.784-94.304 13.696-111.936l-0.064-0.96z m-51.744-70.24l-4.48 5.344c-8.192 9.696-16.416 19.168-25.056 28.544a668.352 668.352 0 0 1-54.592 53.056c-17.76 15.424-36.288 29.888-55.36 43.52 16.256-9.568 32.8-18.56 49.696-26.816a2412.64 2412.64 0 0 1 112-45.056 88 88 0 0 0 3.424-3.008l-2.304-5.984c-2.752-7.104-5.536-14.08-8.544-20.8a271.808 271.808 0 0 0-14.784-28.8z m179.52 26.752l-18.624 5.952c-10.24 3.328-20.448 6.72-30.624 10.144l-30.528 10.368-8.64 2.976c22.976 14.24 71.616 43.616 96.384 58.528l-0.16-5.664a532.192 532.192 0 0 0-7.52-80.864l-0.256-1.44z m-233.28-78.72a294.272 294.272 0 0 1-22.432 55.168 380.8 380.8 0 0 1-5.696 10.4l-2.944 5.12-1.504 2.528-0.608 1.184-0.704 1.376c-1.856 3.552-3.84 6.976-5.888 10.336-5.12 8.48-10.592 16.64-16.32 24.64a946.688 946.688 0 0 1 97.472-77.312 230.4 230.4 0 0 0-20.608-23.744c-5.12-5.216-10.56-10.24-16.288-15.232l-2.368-2.048c-0.64 2.56-1.376 5.12-2.112 7.616z m231.488-43.008l-4 5.824c-5.696 8.064-11.68 15.904-17.824 23.584-6.144 7.648-12.48 15.136-18.944 22.528l-9.6 10.848-9.568 10.88c-6.4 7.232-12.704 14.592-19.264 21.824-3.296 3.616-6.592 7.232-9.92 10.784-3.392 3.584-6.816 7.104-10.304 10.56-9.664 9.632-19.84 18.752-30.496 27.296 25.056-9.28 50.336-18.336 76.032-27.52a2011.392 2011.392 0 0 1 144.384-46.624l4.672 4.096c-13.12-11.776-27.936-23.264-41.632-34.432a686.016 686.016 0 0 0-53.536-39.648z m-24.672 4.48l-7.84 3.68a1874.624 1874.624 0 0 0-128.544 69.44l-2.944-4.736a124.288 124.288 0 0 1 20.928 69.248l-6.624 6.24c14.176-13.024 27.616-26.592 40.192-40.992 12.576-14.368 24.512-29.44 36.864-44.48a1304.256 1304.256 0 0 1 18.816-22.304c6.24-7.296 12.416-14.624 18.336-22.08 3.68-4.64 7.296-9.312 10.816-14.048z m-97.12-49.824l-19.456 14.08a4867.776 4867.776 0 0 0-69.632 51.904l-9.568 7.232 6.72 2.72a115.584 115.584 0 0 1 40.64 30.336l0.704-0.896c7.36-9.888 14.304-20 20.544-30.496 6.272-10.464 11.872-21.28 16.576-32.448a241.376 241.376 0 0 0 13.472-42.432z m362.048-47.744l-3.424 9.408c-2.816 7.264-5.92 14.4-9.312 21.408a316.352 316.352 0 0 1-37.6 59.136 507.968 507.968 0 0 1-47.456 51.136l-4.864 4.48 3.744 3.648 22.24-5.76a2062.08 2062.08 0 0 1 191.68-39.072l7.52-1.12-0.704-0.96a326.208 326.208 0 0 0-51.936-54.624 446.848 446.848 0 0 0-69.888-47.68zM437.03872 332.16l-0.416 2.944a250.816 250.816 0 0 1-32.672 91.008l-3.264 5.216a1151.808 1151.808 0 0 1 98.336-54.4l13.76-6.592a738.176 738.176 0 0 0-75.744-38.176z m335.104-42.4l-25.728 8.608c-30.592 10.368-60.928 21.28-90.944 32.96-26.752 10.432-53.28 21.44-79.552 33.024l-3.168-1.792c16.256 9.376 32.192 19.424 47.68 30.176 15.456 10.816 30.336 22.432 44.48 34.976l1.088 1.024 5.248-5.44c16.16-16 31.936-32.256 46.624-49.344a458.88 458.88 0 0 0 40.32-54.144c5.888-9.312 11.424-18.848 16.64-28.576a67.04 67.04 0 0 0-2.688-1.472z m156.256 104.512l-24.8 3.616 6.56 9.248 6.784 10.528 11.456-23.36zM309.48672 288.352l-0.48-1.664c4.864 15.616 8.096 31.744 9.76 48a249.696 249.696 0 0 1-4.16 74.784l8.448-8.832c12.256-12.576 24.992-24.704 38.08-36.416a896 896 0 0 1 51.168-42.24 840.992 840.992 0 0 0-102.784-33.6z m277.984-62.304l-2.496 1.728-43.296 29.28c-25.824 17.472-51.488 35.04-76.96 52.864a763.744 763.744 0 0 1 80.544 37.376 341.632 341.632 0 0 0 31.296-78.752l0.448-1.76 0.128-0.448 0.352-1.248 1.024-3.392 1.92-6.848c2.496-9.12 4.8-18.336 6.848-27.712l0.192-1.088z m8.672-3.584l0.256 5.536a187.168 187.168 0 0 1-2.976 37.12l-0.64 3.68-0.192 0.896-0.064 0.224-0.032 0.256-0.128 0.448-0.416 1.76a368.448 368.448 0 0 1-12.96 42.656c-4.16 10.944-8.832 21.664-14.08 32.128a1107.84 1107.84 0 0 1 84.992-31.424 1021.184 1021.184 0 0 1 114.496-30.048l1.728 0.864a704.928 704.928 0 0 0-70.112-31.552 1003.008 1003.008 0 0 0-99.84-32.512z m-170.016-31.04l2.944 10.624a337.12 337.12 0 0 1 10.688 98.464l1.12 0.384a984.16 984.16 0 0 1 92.16-57.952c15.36-8.48 30.944-16.576 46.784-24.128l0.736-0.416-7.808-1.92a1036.864 1036.864 0 0 0-101.76-19.744 430.272 430.272 0 0 0-12.672-1.6l-13.216-1.44a2514.464 2514.464 0 0 1-18.976-2.24z m-11.104-1.408l3.488-3.52c-5.536 5.824-11.2 11.52-16.928 17.056a834.848 834.848 0 0 1-72.48 62.08l-4.448 3.296 9.216 1.824c28.96 6.144 57.664 13.76 85.952 22.88l6.144 2.08c1.6-18.336 1.888-36.864 0.96-55.36-0.768-16.512-2.56-32.992-5.056-49.44a255.04 255.04 0 0 1-3.168-0.384l-3.68-0.512z m-137.312-23.776l2.784 4.8a295.36 295.36 0 0 1 17.824 40.64l1.824 5.248 1.76 5.312a164.8 164.8 0 0 1 7.584 43.616l-6.08 7.232c5.056-6.336 10.368-12.416 15.84-18.336a426.56 426.56 0 0 1 34.784-33.344 425.6 425.6 0 0 1 38.272-29.312l6.496-4.224-6.464-0.864c-8.768-1.248-17.536-2.56-26.336-3.872a1216.128 1216.128 0 0 1-88.32-16.896z m-76.992-23.456l1.472 1.056 4.608 3.2 4.544 3.232 4.128 2.88 1.472 1.088 1.28 0.96 2.464 1.984a280.16 280.16 0 0 1 42.624 43.616c9.44 11.904 17.824 24.64 25.184 37.952L288.14272 236.8l-2.048-10.368-1.088-5.248-1.216-5.28c-1.632-7.008-3.264-14.048-4.96-21.088-2.336-9.984-4.8-19.936-7.104-30.08a693.344 693.344 0 0 1-36.064-9.728 381.76 381.76 0 0 1-34.912-12.224z m211.776-20.928l-3.008 2.304c-12.32 9.408-31.744 24.64-41.568 32.352l-0.32 0.256a2779.584 2779.584 0 0 0 53.952 3.84l12.608 0.8-0.544-0.704a164.288 164.288 0 0 1-19.392-34.688l-1.728-4.16zM238.38272 77.792l-2.336 1.44 70.624 71.744c8.32 0.96 16.704 1.824 25.056 2.624l1.952-0.64c13.44-4.8 55.776-28.16 74.304-38.496l1.344-0.736a338.144 338.144 0 0 1-1.728-4.704h0.032l-0.48-0.064c-29.216-2.304-144-12.48-168.448-30.912l-0.32-0.256z m-8 5.024c-36.224 23.584-39.872 39.264-38.272 47.104l-3.584-1.184c8.128 2.88 16.48 5.216 24.96 7.232 16.896 3.968 34.048 7.104 51.328 9.6l14.176 1.92zM383.27872 10.208l-5.664 1.92c-53.6 18.464-125.728 57.92-125.728 57.92l-1.12 0.64c20.896 4.096 84.576 16.448 126.08 23.52l12.256 2.048c5.696 0.928 10.688 1.664 14.688 2.208h0.192l-2.08-6.528c-12.864-41.536-18.624-81.728-18.624-81.728z" fill="#222222" p-id="9396"></path><path d="M165.29472 107.04c-0.704 2.08-0.032 3.84 0.736 5.312 0.8 1.472 1.92 2.784 3.072 4 2.4 2.464 5.152 4.672 8 6.784l3.52 2.432 1.888 0.896a242.336 242.336 0 0 0 30.976 9.504c16.896 3.968 34.048 7.104 51.328 9.6 34.56 5.088 69.44 8.544 104.32 11.328 17.472 1.44 34.944 2.56 52.448 3.712l26.24 1.536 13.12 0.736c4.64 0.256 9.184 0.608 13.696 0.96 17.984 1.504 35.776 3.776 53.504 6.432 17.76 2.656 35.392 5.952 52.96 9.6 35.136 7.392 69.952 16.864 104 28.864 8.512 3.008 16.96 6.144 25.376 9.472a742.176 742.176 0 0 1 49.664 22.08c8.128 4.096 16.192 8.32 24.128 12.736 15.968 8.864 31.456 18.56 46.368 29.056 14.944 10.56 29.376 21.952 43.008 34.272a357.12 357.12 0 0 1 70.016 85.408l12.032 20.736-23.456 2.624c-74.496 8.352-148.576 21.248-221.792 37.952-73.28 16.64-145.76 38.464-217.088 62.464-71.36 23.872-141.696 49.696-210.56 80.448a2135.712 2135.712 0 0 0-152.032 75.2c-16.512 9.088-32.96 18.4-48.96 28.32h-0.032a1.92 1.92 0 0 1-2.56-0.608l-6.4 4.448 6.176-5.056-0.096-0.32a1.92 1.92 0 0 1 0.832-1.664l9.184-6.112c42.24-35.104 81.92-73.12 116.832-115.04 9.792-11.84 19.2-23.936 28.064-36.384 8.832-12.448 17.152-25.28 24.448-38.464a212.16 212.16 0 0 0 5.152-9.92l1.28-2.656 1.088-2.688 2.112-5.248c1.408-3.52 2.752-7.072 4.032-10.624a348.384 348.384 0 0 0 15.104-53.984c1.408-7.232 2.496-14.528 3.296-21.824a252.288 252.288 0 0 0 1.216-43.616 241.856 241.856 0 0 0-30.112-102.624A282.336 282.336 0 0 0 200.52672 181.76l-1.984-1.664-1.728-1.376-0.768-0.608-0.384-0.32-0.544-0.512-1.12-1.056-2.176-2.112-4.352-4.288-4.128-4.544c-2.784-3.008-5.312-6.304-7.872-9.6a96.928 96.928 0 0 1-12.672-22.496 44.576 44.576 0 0 1-3.04-13.504 20.256 20.256 0 0 1 0.896-7.296 10.816 10.816 0 0 1 1.76-3.296 5.632 5.632 0 0 1 2.848-2.016z m152.704 398.176l-18.24 11.52c-17.408 11.104-34.592 22.496-51.84 33.984a167.488 167.488 0 0 1-4.128 5.472c-9.6 12.384-19.744 24.256-30.272 35.744a769.472 769.472 0 0 1-67.136 64.64c-11.776 10.048-23.808 19.84-36.064 29.28l11.52-7.68c13.504-9.12 27.072-18.208 40.704-27.136l21.696-18.368c9.6-8.096 19.104-16.288 28.576-24.512a1372.96 1372.96 0 0 0 55.168-50.56 970.816 970.816 0 0 0 50.016-52.384z m44.32-18.24l-2.048 2.464c-8.224 9.696-16.48 19.168-25.152 28.544a647.936 647.936 0 0 1-54.944 52.96c-14.816 12.704-30.176 24.736-45.92 36.096 12.8-7.328 25.824-14.24 39.04-20.704a2398.08 2398.08 0 0 1 109.632-44.16c1.568-1.312 3.072-2.72 4.576-4.16l-2.496-5.472a741.696 741.696 0 0 0-9.344-20.384c-4.192-8.768-8.608-17.152-13.344-25.216z m-49.152-60.512l-1.408 4.896a287.744 287.744 0 0 1-17.792 44.672c-1.76 3.584-3.584 7.104-5.44 10.624-1.92 3.488-3.84 6.944-5.856 10.336l-3.072 5.12-1.504 2.496-1.312 2.56c-1.92 3.584-3.936 7.008-5.984 10.4-3.616 5.92-7.392 11.68-11.296 17.312l1.92-1.856c10.016-9.12 20.288-17.984 30.752-26.656 17.792-14.72 36.16-28.704 54.976-42.112a256.224 256.224 0 0 0-18.464-22.08 402.72 402.72 0 0 0-15.52-15.712z m207.488-8c-6.144 7.68-12.48 15.2-18.976 22.56l-9.664 10.848-9.568 10.816c-12.8 14.432-25.664 29.216-39.808 43.04-8.896 8.704-18.208 16.96-27.904 24.736 23.744-8.832 47.776-17.44 72.192-26.112a2011.296 2011.296 0 0 1 144.32-46.656l4.736 4.096c-13.12-11.776-27.936-23.264-41.632-34.432-13.696-11.2-27.776-21.92-42.368-32.064l-9.344-6.336a455.36 455.36 0 0 1-21.984 29.504z m-12.288-19.744l1.088-0.512c-38.4 18.848-76.192 38.912-113.376 60.16l-12.672 7.36a119.456 119.456 0 0 1 15.84 61.088l-8.8 8.448c13.984-13.216 27.2-26.88 39.616-41.344 12.416-14.432 24.256-29.568 36.544-44.672 3.04-3.808 6.208-7.52 9.312-11.264 3.136-3.744 6.368-7.52 9.44-11.104 6.24-7.264 12.384-14.56 18.304-22.016l4.704-6.144z m-92.64-50.976l41.728-29.536c-28.352 19.904-56.512 40.032-84.544 60.416l-42.144 30.72-7.776 5.632 3.136 1.12c5.824 2.208 11.456 4.928 16.8 8.128 9.216 5.504 17.696 12.48 25.056 20.48l-1.28 1.728c7.36-9.824 14.24-19.872 20.448-30.272 6.24-10.368 11.808-21.088 16.48-32.16a241.28 241.28 0 0 0 11.584-34.144l0.512-2.112z m366.144-52.672l-3.264 9.44a284.352 284.352 0 0 1-9.024 21.6 305.792 305.792 0 0 1-37.28 59.776 485.76 485.76 0 0 1-47.52 51.36l-4.928 4.352 2.272 2.24 22.272-5.76a2062.08 2062.08 0 0 1 191.68-39.072l7.52-1.12-0.704-0.96a326.208 326.208 0 0 0-51.936-54.624 445.792 445.792 0 0 0-69.12-47.232z m-8.896-4.896l-3.36 1.216a3120.64 3120.64 0 0 0-38.112 13.44 2374.72 2374.72 0 0 0-75.328 28.448c-26.144 10.368-52.032 21.248-77.664 32.64l-5.76-3.36c16.256 9.376 32.192 19.424 47.68 30.176 15.296 10.72 30.08 22.24 44.096 34.656l5.248-5.6c16.096-16 31.808-32.224 46.496-49.152 14.72-16.96 28.384-34.656 40.672-53.536 6.016-9.152 11.68-18.592 17.088-28.256a8.064 8.064 0 0 0-1.056-0.64z m-334.08 42.784l-0.352 2.496a240.32 240.32 0 0 1-3.648 19.2 242.88 242.88 0 0 1-11.744 37.44 270.4 270.4 0 0 1-15.872 32.512 1069.632 1069.632 0 0 1 90.592-49.984l12.224-5.856-3.264-1.856a737.376 737.376 0 0 0-67.968-33.92z m489.504 61.312l-24.8 3.616 6.56 9.248 6.784 10.528 11.456-23.36zM313.42272 289.376l-1.088-3.776c4.896 15.84 8.096 32.224 9.696 48.64 2.176 23.36 0.896 46.848-3.424 69.536l3.648-4.096c12.032-12.832 24.64-25.12 37.664-37.024 16-14.592 32.608-28.48 49.696-41.76l0.416 0.128c-31.424-12.48-63.712-23.008-96.608-31.68z m272.32-60.544l-0.128 0.064c-14.24 10.08-28.544 20-42.816 29.92-25.184 17.408-50.24 34.784-75.2 52.288a734.72 734.72 0 0 1 75.84 35.2 338.912 338.912 0 0 0 31.232-78.24l0.48-1.76 0.128-0.448v-0.096l0.032-0.064 0.32-1.056 1.056-3.36 2.048-6.784c2.464-8.448 4.8-16.96 7.008-25.664z m11.424-6.08l0.384 5.376a175.168 175.168 0 0 1-2.24 37.44l-0.64 3.68-0.16 0.928-0.032 0.224-0.064 0.256-0.096 0.448-0.416 1.76a364 364 0 0 1-12.96 42.944c-3.424 9.088-7.232 18.08-11.456 26.88a1024.064 1024.064 0 0 1 158.4-50.24c11.776-2.688 23.584-5.152 35.456-7.36l2.816 1.472a704.928 704.928 0 0 0-70.112-31.552A1002.048 1002.048 0 0 0 597.16672 222.72z m-170.496-31.264l3.104 10.432a336.192 336.192 0 0 1 11.936 88.544l-0.128 6.784 0.736-0.512a889.984 889.984 0 0 1 89.664-55.552c15.328-8.224 30.848-16 46.688-23.232a1036.864 1036.864 0 0 0-107.68-21.216 430.272 430.272 0 0 0-12.64-1.6l-13.216-1.44a2514.464 2514.464 0 0 1-18.464-2.208z m-10.048-1.28l2.624-2.848c-5.312 6.016-10.816 11.904-16.48 17.6-11.264 11.36-22.976 22.08-35.008 32.416-12.064 10.304-24.48 20.224-37.44 29.6l-3.328 2.368 6.912 1.408c28.96 6.144 57.664 13.76 85.952 22.88l4.48 1.504c1.696-18.08 2.144-36.352 1.472-54.72a503.424 503.424 0 0 0-4.416-49.6 180.256 180.256 0 0 1-2.656-0.32l-2.112-0.288z m-137.76-23.68l0.224 0.32a250.848 250.848 0 0 1 21.056 44.288l1.92 5.248c0.64 1.92 1.216 3.424 1.824 5.344a148.928 148.928 0 0 1 7.488 39.552l1.376-1.728 5.28-6.144c10.752-12.096 22.336-23.296 34.528-33.76 12.224-10.464 25.056-20.192 38.624-28.96l5.12-3.2-3.936-0.48c-8.768-1.248-17.536-2.56-26.336-3.872a1222.176 1222.176 0 0 1-87.168-16.64z m-65.184-18.72l3.84 2.56 1.568 1.12 1.312 0.992 2.56 2.016a279.808 279.808 0 0 1 43.264 44.096c6.176 7.808 11.936 16 17.248 24.48l-0.32-1.376-1.152-5.248-4.576-21.152c-2.112-10.144-4.32-20.288-6.304-30.656-3.2-0.736-6.432-1.568-9.664-2.368-8.64-2.24-17.248-4.64-25.792-7.232-7.36-2.24-14.72-4.576-21.984-7.232z" fill="#FF0000" p-id="9397"></path></svg>